<svg width="25" height="24" viewBox="0 0 25 24" fill="none" xmlns="http://www.w3.org/2000/svg">
<path d="M12.2529 3.4668C7.14592 3.4668 3.00592 6.73109 3.00592 10.7577C3.00592 13.361 4.73671 15.6453 7.34029 16.9352C7.19865 17.4237 6.43008 20.0777 6.39949 20.2862C6.39949 20.2862 6.38108 20.4429 6.48254 20.5027C6.58399 20.5624 6.70331 20.516 6.70331 20.516C6.99423 20.4754 10.077 18.31 10.6105 17.9339C11.1436 18.0094 11.6924 18.0486 12.2529 18.0486C17.36 18.0486 21.5 14.7844 21.5 10.7577C21.5 6.73109 17.36 3.4668 12.2529 3.4668Z" fill="#333333"/>
<path d="M7.14009 13.3026C6.84587 13.3026 6.60661 13.0741 6.60661 12.7932V9.62384H5.7742C5.48549 9.62384 5.25067 9.38946 5.25067 9.10147C5.25067 8.81348 5.48558 8.5791 5.7742 8.5791H8.50598C8.79468 8.5791 9.0295 8.81348 9.0295 9.10147C9.0295 9.38946 8.79459 9.62384 8.50598 9.62384H7.67357V12.7932C7.67357 13.0741 7.4343 13.3026 7.14009 13.3026ZM11.818 13.2957C11.5956 13.2957 11.4254 13.2054 11.3741 13.0601L11.1099 12.3685L9.48314 12.3684L9.2188 13.0604C9.16768 13.2055 8.99758 13.2957 8.77512 13.2957C8.6581 13.2958 8.54244 13.2707 8.436 13.2221C8.28894 13.1542 8.14757 12.9677 8.30957 12.4645L9.58566 9.10574C9.67555 8.85029 9.9486 8.5871 10.2961 8.57919C10.6445 8.58701 10.9176 8.85029 11.0077 9.10627L12.2832 12.4636C12.4456 12.9679 12.3042 13.1545 12.1571 13.2222C12.0507 13.2707 11.935 13.2958 11.818 13.2957C11.818 13.2957 11.8179 13.2957 11.818 13.2957ZM10.8294 11.4235L10.2965 9.90978L9.76366 11.4235H10.8294ZM13.1418 13.2248C12.8598 13.2248 12.6305 13.0054 12.6305 12.7358V9.11258C12.6305 8.81837 12.8748 8.5791 13.1751 8.5791C13.4754 8.5791 13.7197 8.81837 13.7197 9.11258V12.2468H14.8534C15.1353 12.2468 15.3646 12.4662 15.3646 12.7358C15.3646 13.0054 15.1353 13.2248 14.8534 13.2248H13.1418ZM16.1056 13.2957C15.8114 13.2957 15.5721 13.0564 15.5721 12.7622V9.11258C15.5721 8.81837 15.8114 8.5791 16.1056 8.5791C16.3998 8.5791 16.6391 8.81837 16.6391 9.11258V10.2592L18.1275 8.7708C18.2041 8.69424 18.3092 8.6521 18.4234 8.6521C18.5566 8.6521 18.6903 8.70954 18.7905 8.80965C18.884 8.90301 18.9397 9.02314 18.9474 9.14788C18.9551 9.2737 18.9132 9.38902 18.8297 9.47268L17.6139 10.6882L18.9271 12.4279C18.9695 12.4837 19.0004 12.5474 19.018 12.6152C19.0356 12.6831 19.0395 12.7538 19.0295 12.8231C19.02 12.8926 18.9968 12.9594 18.9613 13.0198C18.9258 13.0802 18.8786 13.1329 18.8225 13.175C18.7303 13.2451 18.6175 13.2829 18.5017 13.2826C18.419 13.283 18.3374 13.264 18.2634 13.2272C18.1894 13.1904 18.125 13.1367 18.0755 13.0706L16.8244 11.4129L16.6393 11.598V12.762C16.6391 12.9035 16.5828 13.0391 16.4828 13.1392C16.3827 13.2392 16.2471 13.2955 16.1056 13.2957Z" fill="#F6E24B"/>
</svg>
