<svg width="24" height="24" viewBox="0 0 24 24" fill="none" xmlns="http://www.w3.org/2000/svg">
<path d="M19.8374 18.525L15.9749 14.6625C16.7624 13.6125 17.2499 12.3 17.2499 10.875C17.2499 7.34997 14.3999 4.49997 10.8749 4.49997C7.34988 4.49997 4.49988 7.34997 4.49988 10.875C4.49988 14.4 7.34988 17.25 10.8749 17.25C12.2999 17.25 13.6124 16.7625 14.6624 15.975L18.5249 19.8375C18.5999 19.9125 18.7124 19.9125 18.7874 19.8375L19.8374 18.7875C19.9124 18.7125 19.9124 18.6 19.8374 18.525ZM6.37488 10.875C6.37488 8.39997 8.39988 6.37497 10.8749 6.37497C13.3499 6.37497 15.3749 8.39997 15.3749 10.875C15.3749 13.35 13.3499 15.375 10.8749 15.375C8.39988 15.375 6.37488 13.35 6.37488 10.875Z" fill="#333333"/>
</svg>
