<svg width="25" height="24" viewBox="0 0 25 24" fill="none" xmlns="http://www.w3.org/2000/svg">
<path d="M22.1125 10.5479L12.7625 2.06875C12.6708 1.97708 12.5333 1.97708 12.4417 2.06875L3.1375 10.5479C3.04583 10.6396 3 10.7312 3 10.8687V21.0438C3 21.1813 3.09167 21.2729 3.22917 21.2729H22.0208C22.1583 21.2729 22.25 21.1813 22.25 21.0438V10.8687C22.25 10.7312 22.2042 10.6396 22.1125 10.5479ZM19.9583 18.9813H13.7708V14.6271C13.7708 14.4896 13.6792 14.3979 13.5417 14.3979H11.7083C11.5708 14.3979 11.4792 14.4896 11.4792 14.6271V18.9813H5.29167V11.6938L12.625 5.04792L19.9583 11.6938V18.9813Z" fill="#333333"/>
</svg>
