<svg width="22" height="22" viewBox="0 0 22 22" fill="none" xmlns="http://www.w3.org/2000/svg">
<path d="M18.3523 13.5208H17.302V8.05904C17.302 4.6139 14.445 1.75696 10.9999 1.75696C7.55474 1.75696 4.69779 4.6139 4.69779 8.05904V13.5208H3.64745C3.52141 13.5208 3.43738 13.6049 3.43738 13.7309V15.4115C3.43738 15.5375 3.52141 15.6215 3.64745 15.6215H18.3523C18.4783 15.6215 18.5624 15.5375 18.5624 15.4115V13.7309C18.5624 13.6049 18.4783 13.5208 18.3523 13.5208ZM6.79849 8.05904C6.79849 5.74828 8.68911 3.85765 10.9999 3.85765C13.3106 3.85765 15.2013 5.74828 15.2013 8.05904V13.5208H6.79849V8.05904Z" fill="#333333"/>
<path d="M10.9999 20.2431C11.928 20.2431 12.6804 19.4907 12.6804 18.5625C12.6804 17.6344 11.928 16.882 10.9999 16.882C10.0717 16.882 9.31932 17.6344 9.31932 18.5625C9.31932 19.4907 10.0717 20.2431 10.9999 20.2431Z" fill="#333333"/>
</svg>
