<svg width="98" height="16" viewBox="0 0 98 16" fill="none" xmlns="http://www.w3.org/2000/svg">
<path d="M0 3.75H3.72V15.05H7.14V3.75H10.86V1.01H0V3.75Z" fill="#333333"/>
<path d="M11.9764 15.05H15.3964V1.01H11.9764V15.05Z" fill="#333333"/>
<path d="M16.6948 8.01C16.6948 12.21 19.6148 15.15 23.7548 15.15C27.0948 15.15 29.6148 13.29 30.4148 10.25H26.6548C26.0748 11.45 25.0148 12.05 23.7148 12.05C21.6148 12.05 20.1748 10.49 20.1748 8.01C20.1748 5.53 21.6148 3.97 23.7148 3.97C25.0148 3.97 26.0748 4.57 26.6548 5.77H30.4148C29.6148 2.73 27.0948 0.849997 23.7548 0.849997C19.6148 0.849997 16.6948 3.81 16.6948 8.01Z" fill="#333333"/>
<path d="M31.9092 1.01V15.05H39.8092V12.41H35.3292V1.01H31.9092Z" fill="#333333"/>
<path d="M49.4405 1.01H40.8405V15.05H49.4405V12.31H44.2605V9.23H48.8405V6.59H44.2605V3.75H49.4405V1.01Z" fill="#333333"/>
<path d="M51.0608 15.05H54.4808V6.61L57.6408 15.05H60.4008L63.5408 6.63V15.05H66.9608V1.01H62.9408L59.0408 10.73L55.1008 1.01H51.0608V15.05Z" fill="#333333"/>
<path d="M82.6402 7.99C82.6402 3.77 79.4602 0.809998 75.4602 0.809998C71.4801 0.809998 68.2402 3.77 68.2402 7.99C68.2402 12.21 71.4801 15.19 75.4602 15.19C79.4402 15.19 82.6402 12.21 82.6402 7.99ZM71.7402 7.99C71.7402 5.49 73.1802 3.91 75.4602 3.91C77.7001 3.91 79.1602 5.49 79.1602 7.99C79.1602 10.45 77.7001 12.07 75.4602 12.07C73.1802 12.07 71.7402 10.45 71.7402 7.99Z" fill="#333333"/>
<path d="M93.5228 15.05H97.1428L92.0628 1.01H88.1028L83.0228 15.05H86.6028L87.4428 12.57H92.6828L93.5228 15.05ZM91.8028 9.93H88.3428L90.0628 4.79L91.8028 9.93Z" fill="#333333"/>
</svg>
