<svg width="177" height="25" viewBox="0 0 177 25" fill="none" xmlns="http://www.w3.org/2000/svg">
<path d="M0 5.11127H6.46728V24.7566H12.413V5.11127H18.8803V0.347705H0V5.11127Z" fill="white"/>
<path d="M22.1738 24.7566H28.1195V0.347705H22.1738V24.7566Z" fill="white"/>
<path d="M31.7295 12.5174C31.7295 19.8192 36.8059 24.9305 44.0034 24.9305C49.81 24.9305 54.1911 21.6968 55.5819 16.4117H49.0451C48.0368 18.4979 46.1939 19.541 43.9339 19.541C40.283 19.541 37.7795 16.8289 37.7795 12.5174C37.7795 8.20584 40.283 5.49374 43.9339 5.49374C46.1939 5.49374 48.0368 6.53686 49.0451 8.62309H55.5819C54.1911 3.33797 49.81 0.0695401 44.0034 0.0695401C36.8059 0.0695401 31.7295 5.21558 31.7295 12.5174Z" fill="white"/>
<path d="M59.5325 0.347705V24.7566H73.2668V20.1669H65.4783V0.347705H59.5325Z" fill="white"/>
<path d="M91.3635 0.347705H76.4123V24.7566H91.3635V19.993H82.358V14.6384H90.3204V10.0487H82.358V5.11127H91.3635V0.347705Z" fill="white"/>
<path d="M95.5331 24.7566H101.479V10.0834L106.973 24.7566H111.771L117.23 10.1182V24.7566H123.175V0.347705H116.187L109.406 17.2462L102.557 0.347705H95.5331V24.7566Z" fill="white"/>
<path d="M151.787 12.4826C151.787 5.14604 146.258 0 139.304 0C132.385 0 126.752 5.14604 126.752 12.4826C126.752 19.8192 132.385 25 139.304 25C146.224 25 151.787 19.8192 151.787 12.4826ZM132.837 12.4826C132.837 8.1363 135.341 5.38943 139.304 5.38943C143.199 5.38943 145.737 8.1363 145.737 12.4826C145.737 16.7594 143.199 19.5758 139.304 19.5758C135.341 19.5758 132.837 16.7594 132.837 12.4826Z" fill="white"/>
<path d="M170.707 24.7566H177L168.168 0.347705H161.284L152.452 24.7566H158.676L160.136 20.4451H169.246L170.707 24.7566ZM167.716 15.8554H161.701L164.691 6.91933L167.716 15.8554Z" fill="white"/>
</svg>
