<svg width="16" height="16" viewBox="0 0 16 16" fill="none" xmlns="http://www.w3.org/2000/svg">
<path d="M14.6482 9.62579L13.9598 8.95388C13.9106 8.90588 13.8368 8.90588 13.7876 8.95388L11.6239 11.0656L11.6239 2.78665C11.6239 2.71465 11.5747 2.66666 11.501 2.66666L10.5175 2.66666C10.4437 2.66666 10.3945 2.71465 10.3945 2.78665L10.3945 11.0656L8.23079 8.95388C8.18161 8.90588 8.10785 8.90588 8.05867 8.95388L7.37021 9.62579C7.32104 9.67379 7.32104 9.74578 7.37021 9.79377L10.8863 13.2973C10.9355 13.3453 11.0092 13.3453 11.0584 13.2973L14.6482 9.81777C14.6728 9.76977 14.6728 9.67379 14.6482 9.62579Z" fill="#333333"/>
<path d="M0.685105 6.37419L1.37357 7.04611C1.42274 7.0941 1.4965 7.0941 1.54568 7.04611L3.70941 4.93437V13.2133C3.70941 13.2853 3.75859 13.3333 3.83235 13.3333H4.81587C4.88963 13.3333 4.93881 13.2853 4.93881 13.2133V4.93437L7.10254 7.04611C7.15172 7.0941 7.22548 7.0941 7.27465 7.04611L7.96312 6.37419C8.01229 6.3262 8.01229 6.25421 7.96312 6.20621L4.44705 2.70265C4.39787 2.65466 4.32411 2.65466 4.27493 2.70265L0.685105 6.18222C0.660517 6.23021 0.660517 6.3262 0.685105 6.37419Z" fill="#333333"/>
</svg>
