<svg width="25" height="24" viewBox="0 0 25 24" fill="none" xmlns="http://www.w3.org/2000/svg">
<path d="M12.1667 21C17.1372 21 21.1667 16.9706 21.1667 12C21.1667 7.02944 17.1372 3 12.1667 3C7.19609 3 3.16666 7.02944 3.16666 12C3.16666 16.9706 7.19609 21 12.1667 21Z" fill="#00C572" stroke="#333333" stroke-width="2" stroke-miterlimit="10"/>
<path fill-rule="evenodd" clip-rule="evenodd" d="M15.7532 7.08984L17.0777 8.41275L14.3486 14.4421L8.56015 16.9197L7.24768 15.6061L9.7281 9.82551L15.7532 7.08984ZM11.2605 11.3262L10.0714 14.0973L12.847 12.9093L14.1593 10.01L11.2605 11.3262Z" fill="#333333"/>
<path d="M10.1667 12L8.16666 16L12.1667 14L10.1667 12Z" fill="#333333"/>
<path d="M14.1667 12.5L11.6667 10L16.1667 8L14.1667 12.5Z" fill="#333333"/>
</svg>
