<svg width="25" height="24" viewBox="0 0 25 24" fill="none" xmlns="http://www.w3.org/2000/svg">
<path d="M12.1666 21C17.1372 21 21.1666 16.9706 21.1666 12C21.1666 7.02944 17.1372 3 12.1666 3C7.19606 3 3.16663 7.02944 3.16663 12C3.16663 16.9706 7.19606 21 12.1666 21Z" stroke="#333333" stroke-width="2" stroke-miterlimit="10"/>
<path fill-rule="evenodd" clip-rule="evenodd" d="M15.7532 7.08946L17.0777 8.41236L14.3486 14.4417L8.56015 16.9193L7.24768 15.6057L9.7281 9.82513L15.7532 7.08946ZM11.2605 11.3259L10.0714 14.0969L12.847 12.9089L14.1593 10.0097L11.2605 11.3259Z" fill="#333333"/>
<path d="M10.1666 12L8.16663 16L12.1666 14L10.1666 12Z" fill="#333333"/>
<path d="M14.1666 12.5L11.6666 10L16.1666 8L14.1666 12.5Z" fill="#333333"/>
</svg>
