<svg width="16" height="16" viewBox="0 0 16 16" fill="none" xmlns="http://www.w3.org/2000/svg">
<path d="M14.6482 9.62581L13.9597 8.95389C13.9105 8.9059 13.8368 8.9059 13.7876 8.95389L11.6239 11.0656L11.6239 2.78666C11.6239 2.71467 11.5747 2.66668 11.5009 2.66668L10.5174 2.66668C10.4437 2.66668 10.3945 2.71467 10.3945 2.78666L10.3945 11.0656L8.23075 8.95389C8.18157 8.9059 8.10781 8.9059 8.05863 8.95389L7.37017 9.62581C7.321 9.6738 7.321 9.74579 7.37017 9.79379L10.8862 13.2973C10.9354 13.3453 11.0092 13.3453 11.0584 13.2973L14.6482 9.81778C14.6728 9.76979 14.6728 9.6738 14.6482 9.62581Z" fill="#333333"/>
<path d="M0.685067 6.37419L1.37353 7.04611C1.4227 7.0941 1.49647 7.0941 1.54564 7.04611L3.70937 4.93437V13.2133C3.70937 13.2853 3.75855 13.3333 3.83231 13.3333H4.81583C4.88959 13.3333 4.93877 13.2853 4.93877 13.2133V4.93437L7.1025 7.04611C7.15168 7.0941 7.22544 7.0941 7.27462 7.04611L7.96308 6.37419C8.01225 6.3262 8.01225 6.25421 7.96308 6.20621L4.44701 2.70265C4.39784 2.65466 4.32407 2.65466 4.2749 2.70265L0.685067 6.18222C0.660479 6.23021 0.660479 6.3262 0.685067 6.37419Z" fill="#333333"/>
</svg>
